<?xml version="1.0" encoding="UTF-8"?>
<svg width="84px" height="84px" viewBox="0 0 84 84" version="1.1" xmlns="http://www.w3.org/2000/svg" xmlns:xlink="http://www.w3.org/1999/xlink">
    <title>icon-chart</title>
    <g id="Front-end-test" stroke="none" stroke-width="1" fill="none" fill-rule="evenodd">
        <g id="OnePage_FrontEndTest_0.1" transform="translate(-825.000000, -1823.000000)" fill="#404040" fill-rule="nonzero">
            <g id="Services" transform="translate(149.000000, 1680.000000)">
                <g id="3" transform="translate(584.000000, 143.000000)">
                    <g id="icon-chart" transform="translate(92.000000, 0.000000)">
                        <path d="M11.483978,84 C12.5204668,84 13.3606397,83.1595577 13.3609091,82.1230689 L13.3609091,76.8649715 L82.1230689,76.8649715 C83.1596693,76.8649715 84,76.0246408 84,74.9880404 C84,73.9514399 83.1596693,73.1111093 82.1230689,73.1111093 L13.3609091,73.1111093 L13.3609091,1.87693112 C13.3609091,0.840330684 12.5205784,0 11.483978,0 C10.4473776,0 9.60704689,0.840330684 9.60704689,1.87693112 L9.60704689,73.1111093 L1.87693112,73.1111093 C0.840330684,73.1111093 0,73.9514399 0,74.9880404 C0,76.0246408 0.840330684,76.8649715 1.87693112,76.8649715 L9.60704689,76.8649715 L9.60704689,82.1230689 C9.60731628,83.1595577 10.4474892,84 11.483978,84 Z" id="Shape"></path>
                        <path d="M17.3944751,75.4268128 L31.8785905,61.180838 L41.2981363,71.0477433 C41.8028746,71.5765608 42.5553053,71.7869571 43.2601857,71.5963757 C43.965066,71.4057944 44.5099447,70.8446393 44.6810193,70.1330996 L55.0154872,27.194555 L66.6482262,37.6776625 C67.1235618,38.1063468 67.775005,38.2807317 68.400224,38.1466547 C69.0254429,38.0125778 69.5487219,37.5862762 69.8075355,37.000155 L81.8289468,9.81118737 C82.1177432,9.15764828 82.0368262,8.39929098 81.6166764,7.82178134 C81.1965267,7.2442717 80.500975,6.93534719 79.7920289,7.01137668 C79.0830828,7.08740617 78.4684481,7.53683897 78.1796518,8.19037809 L67.2720368,32.8582751 L55.1947986,21.9738078 C54.6719598,21.5023178 53.9402,21.3414807 53.2685606,21.5504307 C52.5969213,21.7593806 52.0845359,22.3072766 51.9197899,22.9926773 L41.6568124,65.6354752 L33.3653556,56.9503021 C32.9960809,56.5636852 32.4878408,56.3412943 31.9539801,56.3327258 C31.4166182,56.3041574 30.8938831,56.5137834 30.5244126,56.9060075 L14.5977411,72.5708376 C14.0888624,73.0716946 13.8851664,73.8066785 14.0633833,74.4989279 C14.2416002,75.1911773 14.7746547,75.7355232 15.4617503,75.9269156 C16.1488459,76.118308 16.8855964,75.9276699 17.3944751,75.4268128 Z" id="Shape"></path>
                    </g>
                </g>
            </g>
        </g>
    </g>
</svg>