<?xml version="1.0" encoding="UTF-8"?>
<svg width="86px" height="86px" viewBox="0 0 86 86" version="1.1" xmlns="http://www.w3.org/2000/svg" xmlns:xlink="http://www.w3.org/1999/xlink">
    <title>icon-cog</title>
    <g id="Front-end-test" stroke="none" stroke-width="1" fill="none" fill-rule="evenodd">
        <g id="OnePage_FrontEndTest_0.1" transform="translate(-531.000000, -1822.000000)" fill="#404040" fill-rule="nonzero">
            <g id="Services" transform="translate(149.000000, 1680.000000)">
                <g id="2" transform="translate(291.000000, 142.000000)">
                    <g id="icon-cog" transform="translate(91.000000, 0.000000)">
                        <path d="M69.0829909,62.1955446 L72.2094724,64.0024752 L72.2988005,63.8217822 C76.6758746,57.6782178 78.9984038,50.3601485 78.9984038,42.6806931 C79.0877318,32.8329208 75.425282,23.6175743 68.6363506,16.7512376 C61.8474193,9.79455446 52.7359587,6 43.0885299,6 C23.168376,6 7,22.3527228 7,42.5 C7,62.6472772 23.168376,79 43.0885299,79 C46.5723237,79 49.8774613,78.5482673 53.0039429,77.5544554 L53.182599,77.4641089 L52.4679746,73.8502475 L52.1999905,73.9405941 C49.162837,74.8440594 46.0363554,75.3861386 42.9098739,75.3861386 C25.044265,75.3861386 10.4837937,60.6596535 10.4837937,42.5903465 C10.4837937,24.5210396 25.044265,9.79455446 42.9098739,9.79455446 C60.7754827,9.79455446 75.335954,24.5210396 75.335954,42.5903465 C75.335954,49.5470297 73.1920809,56.2326733 69.0829909,62.0148515 L69.0829909,62.1955446 Z" id="Shape"></path>
                        <path d="M73.582294,12.6812046 C65.456094,4.46521288 54.6509271,0 43.1313689,0 C39.1129184,0 35.2730657,0.535825545 31.6118108,1.60747664 L31.433213,1.60747664 L32.0583053,4.91173416 L32.326202,4.91173416 C35.898158,3.92938733 39.5594129,3.39356179 43.1313689,3.39356179 C65.0095995,3.39356179 82.8693796,21.165109 82.8693796,43.1339564 C82.8693796,65.1028037 65.0095995,82.7850467 43.1313689,82.7850467 C21.2531383,82.6957425 3.39335822,64.834891 3.39335822,42.9553479 C3.39335822,34.6500519 5.89372743,26.7912773 10.7158681,20.0041537 L10.8944659,19.8255452 L7.94760214,18.1287643 L7.85830324,18.3073728 C2.76826591,25.5410177 0,34.1142264 0,43.0446521 C0,66.7102804 19.2885625,86 42.9527711,86 C66.7062786,86 85.9948411,66.7102804 85.9948411,43.0446521 C86.1734389,31.6137072 81.7084939,20.807892 73.582294,12.6812046 Z" id="Shape"></path>
                        <path d="M61.7477064,40.3548387 L58.6169725,40.3548387 C58.1697248,38.4677419 57.4541284,36.7603687 56.4701835,35.1428571 L58.9747706,32.6267281 C59.1536697,32.4470046 59.2431193,32.1774194 59.2431193,31.9078341 C59.2431193,31.6382488 59.1536697,31.3686636 58.9747706,31.1889401 L55.4862385,27.6843318 C55.1284404,27.3248848 54.5022936,27.3248848 54.1444954,27.6843318 L51.5504587,30.2903226 C50.1192661,29.3917051 48.5091743,28.7626728 46.8990826,28.3133641 L46.8990826,24.9884793 C46.8990826,24.4493088 46.4518349,24 45.9151376,24 L41.0848624,24 C40.5481651,24 40.1009174,24.4493088 40.1009174,24.9884793 L40.1009174,28.2235023 C38.3119266,28.5829493 36.7018349,29.3018433 35.2706422,30.2004608 L32.4977064,27.4147465 C32.1399083,27.0552995 31.5137615,27.0552995 31.1559633,27.4147465 L27.6674312,30.9193548 C27.4885321,31.0990783 27.3990826,31.3686636 27.3990826,31.6382488 C27.3990826,31.9078341 27.4885321,32.1774194 27.6674312,32.3571429 L30.3509174,35.0529954 C29.2775229,36.6705069 28.5619266,38.3778802 28.1146789,40.3548387 L24.983945,40.3548387 C24.4472477,40.3548387 24,40.8041475 24,41.343318 L24,46.1958525 C24,46.735023 24.4472477,47.1843318 24.983945,47.1843318 L28.1146789,47.1843318 C28.4724771,48.8917051 29.1880734,50.5092166 30.0825688,51.9470046 L27.5779817,54.4631336 C27.3990826,54.6428571 27.309633,54.9124424 27.309633,55.1820276 C27.309633,55.4516129 27.3990826,55.7211982 27.5779817,55.9009217 L31.0665138,59.40553 C31.2454128,59.5852535 31.5137615,59.6751152 31.7821101,59.6751152 C32.0504587,59.6751152 32.3188073,59.5852535 32.4977064,59.40553 L34.912844,56.9792627 C36.5229358,58.0576037 38.3119266,58.7764977 40.2798165,59.2258065 L40.2798165,62.0115207 C40.2798165,62.5506912 40.7270642,63 41.2637615,63 L46.0940367,63 C46.6307339,63 47.0779817,62.5506912 47.0779817,62.0115207 L47.0779817,59.1359447 C48.956422,58.6866359 50.6559633,57.9677419 52.1766055,56.9792627 L54.233945,59.0460829 C54.412844,59.2258065 54.6811927,59.3156682 54.9495413,59.3156682 C55.2178899,59.3156682 55.4862385,59.2258065 55.6651376,59.0460829 L59.0642202,55.6313364 C59.2431193,55.4516129 59.3325688,55.1820276 59.3325688,54.9124424 C59.3325688,54.6428571 59.2431193,54.3732719 59.0642202,54.1935484 L56.9174312,52.0368664 C57.8119266,50.5990783 58.4380734,48.9815668 58.8853211,47.1843318 L62.016055,47.1843318 C62.5527523,47.1843318 63,46.735023 63,46.1958525 L63,41.343318 C62.7316514,40.8041475 62.2844037,40.3548387 61.7477064,40.3548387 Z M43.3211009,53.3847926 C38.043578,53.3847926 33.75,49.0714286 33.75,43.7695853 C33.75,38.4677419 38.043578,34.0645161 43.3211009,34.0645161 C48.5986239,34.0645161 52.8922018,38.3778802 52.8922018,43.6797235 C52.8922018,48.9815668 48.6880734,53.3847926 43.3211009,53.3847926 Z" id="Shape"></path>
                    </g>
                </g>
            </g>
        </g>
    </g>
</svg>