<?xml version="1.0" encoding="UTF-8"?>
<svg width="149px" height="85px" viewBox="0 0 149 85" version="1.1" xmlns="http://www.w3.org/2000/svg" xmlns:xlink="http://www.w3.org/1999/xlink">
    <title>icon-laptop</title>
    <g id="Front-end-test" stroke="none" stroke-width="1" fill="none" fill-rule="evenodd">
        <g id="OnePage_FrontEndTest_0.1" transform="translate(-208.000000, -1821.000000)" fill="#404040" fill-rule="nonzero">
            <g id="Services" transform="translate(149.000000, 1680.000000)">
                <g id="1" transform="translate(0.000000, 141.000000)">
                    <g id="icon-laptop" transform="translate(59.000000, 0.000000)">
                        <path d="M66.037218,79.5526714 C66.037218,79.6873188 66.3972477,80 66.994297,80 L84.005703,80 C84.599752,80 84.9612819,79.6873188 84.9612819,79.5526714 C84.9612819,78.9647112 85.4383213,78.4859649 86.0293702,78.4859649 L136,78.4859649 L136,4.88770033 C136,2.19325641 133.800818,0 131.099095,0 L19.8994049,0 C17.1976816,0 15,2.19176033 15,4.88770033 L15,78.487461 L64.9706298,78.487461 C65.5601785,78.4859649 66.037218,78.9662072 66.037218,79.5526714 Z M18.0242499,4.88770033 C18.0242499,3.85689974 18.8658195,3.01759767 19.8994049,3.01759767 L131.097595,3.01759767 C132.13118,3.01759767 132.97425,3.85689974 132.97425,4.88770033 L132.97425,76.3420792 L18.0242499,76.3420792 L18.0242499,4.88770033 Z" id="Shape"></path>
                        <path d="M141.46058,85 C146.284493,85 148.961122,83.0840694 148.961122,83.0840694 L149,83.0779775 L149,80 L85.0151138,80 C85.0151138,80.8452635 84.1089479,81.5382272 82.9979226,81.5382272 L66.0409558,81.5382272 C64.9314259,81.5382272 64.0237646,80.8452635 64.0237646,80 L0.0388784071,80 L0.0388784071,83.0779775 L0,83.0840694 C0,83.0840694 2.67812412,85 7.50203725,85 L141.46058,85 Z" id="Shape"></path>
                    </g>
                </g>
            </g>
        </g>
    </g>
</svg>