<?xml version="1.0" encoding="UTF-8"?>
<svg width="84px" height="86px" viewBox="0 0 84 86" version="1.1" xmlns="http://www.w3.org/2000/svg" xmlns:xlink="http://www.w3.org/1999/xlink">
    <title>icon-paint</title>
    <g id="Front-end-test" stroke="none" stroke-width="1" fill="none" fill-rule="evenodd">
        <g id="OnePage_FrontEndTest_0.1" transform="translate(-1118.000000, -1822.000000)" fill="#000000" fill-rule="nonzero">
            <g id="Services" transform="translate(149.000000, 1680.000000)">
                <g id="4" transform="translate(877.000000, 142.000000)">
                    <g id="icon-paint" transform="translate(92.000000, 0.000000)">
                        <path d="M14.635304,0 C14.486836,0.518377874 14.177347,1.48464162 14,2 L14.938695,1.20347846 C14.844765,0.894427316 14.71928,0.292778921 14.635304,0 L14.635304,0 Z" id="Shape"></path>
                        <path d="M15.610389,4 L12.4502128,7.11749262 C11.992184,8.12788377 11.5091785,9.09114497 11,10 L16,5.08094164 C15.8655427,4.72828942 15.7366255,4.36569333 15.610389,4 L15.610389,4 Z" id="Shape"></path>
                        <path d="M16.5734143,7 L4.76604878,18.8450451 C3.74857935,20.2355029 2.80624728,21.6013475 2,23 L17,7.95026331 C16.8527161,7.64266773 16.715017,7.31807574 16.5734143,7 Z" id="Shape"></path>
                        <path d="M18.4496189,9 L0.333329665,27.165084 C0.188770664,27.758352 0.0765294835,28.3671327 0,29 L19,9.98306096 C18.8134077,9.66373878 18.6312801,9.33075619 18.4496189,9 Z" id="Shape"></path>
                        <path d="M20.4130625,12 L0,31.6867837 C0.0245134893,32.1260799 0.0711486962,32.5646579 0.131516104,33 L21,12.8429823 C20.8041456,12.5617804 20.6066553,12.2897136 20.4130625,12 L20.4130625,12 Z" id="Shape"></path>
                        <path d="M21.3790994,15 L0,35.9279518 C0.105435887,36.2890332 0.219369205,36.6478133 0.350346424,37 L22,15.8357354 C21.7920005,15.5572941 21.5877375,15.2852612 21.3790994,15 Z" id="Shape"></path>
                        <path d="M24.3891544,17 L2,39.1100591 C2.16241449,39.4124124 2.33686001,39.7092219 2.5196116,40 L25,17.8266552 C24.7962627,17.5544957 24.5968208,17.2761406 24.3891544,17 L24.3891544,17 Z" id="Shape"></path>
                        <path d="M25.4125879,20 L3,42.2486577 C3.22053122,42.5084369 3.45815183,42.7555566 3.69816092,43 L26,20.8266682 C25.8104636,20.5512104 25.6100017,20.2762785 25.4125879,20 L25.4125879,20 Z" id="Shape"></path>
                        <path d="M26.4953266,22 L5,43.4454639 C5.26373065,43.6437475 5.54958764,43.8192909 5.83078028,44 L27,22.9079607 C26.8327803,22.6045908 26.6765117,22.2999983 26.4953266,22 Z" id="Shape"></path>
                        <path d="M28.585835,25 L8,45.5935492 C8.33804082,45.74411 8.69582094,45.8731372 9.05315746,46 L29,26.0420309 C28.8772231,25.6888352 28.7305934,25.3438843 28.585835,25 Z" id="Shape"></path>
                        <path d="M28.8248546,28 L11,45.805553 C11.4147876,45.8834288 11.8361201,45.9534092 12.2722438,46 L29,29.2639078 C28.9588062,28.8339473 28.9002719,28.4116026 28.8248546,28 L28.8248546,28 Z" id="Shape"></path>
                        <path d="M30,32 L16,46 C16.5466844,45.9689079 17.0791748,45.9115802 17.5995602,45.8264056 L29.7604504,33.6675953 C29.8688854,33.1162018 29.9506543,32.5592 30,32 L30,32 Z" id="Shape"></path>
                        <path d="M28,38 L21,45 C24.0591851,43.4291637 26.4451023,40.9359554 28,38 Z" id="Shape"></path>
                        <path d="M42,40 C39.6171585,48.4477641 36.6146448,52.6863546 32.9921632,57.5017018 C29.8955518,61.6180225 27.0626818,65.3870427 27.0010345,70.8664085 C26.9587028,74.631308 28.2157186,78.4035247 30.7434263,81.2529823 C33.2711235,84.1024409 37.0874879,86 42,86 C46.9125084,86 50.7288747,84.1024409 53.2565728,81.2529823 C55.7842787,78.4035247 57.0412954,74.631308 56.9989656,70.8664085 C56.9373117,65.3870427 54.1044417,61.6180225 51.0078303,57.5017018 C47.3853524,52.6863546 44.3828454,48.4477641 42,40 Z M41.9999991,44.2431657 C44.0440431,50.4720669 47.0859241,54.6499216 49.8761101,58.3258625 C52.9856205,62.4224858 55.5314572,65.8566963 55.5879901,70.8826025 C55.6268276,74.3352199 54.4670028,77.782389 52.1928297,80.346047 C49.9186528,82.909705 46.5460988,84.6180026 41.9999991,84.6180026 C37.4539003,84.6180026 34.0813464,82.909705 31.8071733,80.346047 C29.5330059,77.782389 28.3731792,74.3352199 28.4120109,70.8826025 C28.4685582,65.8566963 31.0143834,62.4224858 34.1238909,58.3258625 C36.914077,54.6499216 39.955957,50.4720669 41.9999991,44.2431657 L41.9999991,44.2431657 Z" id="Shape"></path>
                        <path d="M68.9924543,0 C65.2474635,15.333328 54.1250165,19.5076092 54.0010384,30.6666664 C53.9158691,38.3333573 59.0712843,46 68.9924543,46 C78.1767546,46 84,38.3333355 84,30.6666664 C84,19.7503517 72.7431896,15.333328 68.9924543,0 Z" id="Shape"></path>
                    </g>
                </g>
            </g>
        </g>
    </g>
</svg>